<?xml version="1.0" encoding="UTF-8" standalone="no"?>
<svg
   xmlns:dc="http://purl.org/dc/elements/1.1/"
   xmlns:cc="http://creativecommons.org/ns#"
   xmlns:rdf="http://www.w3.org/1999/02/22-rdf-syntax-ns#"
   xmlns:svg="http://www.w3.org/2000/svg"
   xmlns="http://www.w3.org/2000/svg"
   xmlns:sodipodi="http://sodipodi.sourceforge.net/DTD/sodipodi-0.dtd"
   xmlns:inkscape="http://www.inkscape.org/namespaces/inkscape"
   sodipodi:docname="avatar.svg"
   inkscape:version="1.0 (4035a4fb49, 2020-05-01)"
   id="svg8"
   version="1.1"
   viewBox="0 0 68.791665 100.54167"
   height="380"
   width="260">
  <defs
     id="defs2" />
  <sodipodi:namedview
     inkscape:window-maximized="1"
     inkscape:window-y="-8"
     inkscape:window-x="-8"
     inkscape:window-height="705"
     inkscape:window-width="1366"
     units="px"
     showgrid="false"
     inkscape:document-rotation="0"
     inkscape:current-layer="g891"
     inkscape:document-units="mm"
     inkscape:cy="155.46642"
     inkscape:cx="261.79886"
     inkscape:zoom="0.71"
     inkscape:pageshadow="2"
     inkscape:pageopacity="0.0"
     borderopacity="1.0"
     bordercolor="#666666"
     pagecolor="#ffffff"
     id="base" />
  <metadata
     id="metadata5">
    <rdf:RDF>
      <cc:Work
         rdf:about="">
        <dc:format>image/svg+xml</dc:format>
        <dc:type
           rdf:resource="http://purl.org/dc/dcmitype/StillImage" />
        <dc:title></dc:title>
      </cc:Work>
    </rdf:RDF>
  </metadata>
  <g
     id="layer1"
     inkscape:groupmode="layer"
     inkscape:label="Layer 1">
    <g
       transform="matrix(0.26458333,0,0,0.26458333,6.0518784,-17.797887)"
       id="g891">
      <g
         id="g837">
</g>
      <g
         id="g839">
</g>
      <g
         id="g841">
</g>
      <g
         id="g843">
</g>
      <g
         id="g845">
</g>
      <g
         id="g847">
</g>
      <g
         id="g849">
</g>
      <g
         id="g851">
</g>
      <g
         id="g853">
</g>
      <g
         id="g855">
</g>
      <g
         id="g857">
</g>
      <g
         id="g859">
</g>
      <g
         id="g861">
</g>
      <g
         id="g863">
</g>
      <g
         id="g865">
</g>
      <rect
         y="67.267609"
         x="-29.915495"
         height="391.54929"
         width="273.23947"
         id="rect902"
         style="opacity:0.998;fill:#ececec;stroke-width:1.04476" />
      <g
         style="fill:#ffffff"
         transform="matrix(0.3921907,0,0,0.3921907,16.343229,158.45616)"
         id="g974">
        <g
           style="fill:#ffffff"
           id="g908">
	<g
   style="fill:#ffffff"
   id="g906">
		<path
   style="fill:#ffffff"
   d="m 230.432,0 c -65.829,0 -119.641,53.812 -119.641,119.641 0,65.829 53.812,119.641 119.641,119.641 65.829,0 119.641,-53.812 119.641,-119.641 C 350.073,53.812 296.261,0 230.432,0 Z"
   id="path904" />

	</g>

</g>
        <g
           style="fill:#ffffff"
           id="g914">
	<g
   style="fill:#ffffff"
   id="g912">
		<path
   style="fill:#ffffff"
   d="m 435.755,334.89 c -3.135,-7.837 -7.314,-15.151 -12.016,-21.943 -24.033,-35.527 -61.126,-59.037 -102.922,-64.784 -5.224,-0.522 -10.971,0.522 -15.151,3.657 -21.943,16.196 -48.065,24.555 -75.233,24.555 -27.168,0 -53.29,-8.359 -75.233,-24.555 -4.18,-3.135 -9.927,-4.702 -15.151,-3.657 -41.796,5.747 -79.412,29.257 -102.922,64.784 -4.702,6.792 -8.882,14.629 -12.016,21.943 -1.567,3.135 -1.045,6.792 0.522,9.927 4.18,7.314 9.404,14.629 14.106,20.898 7.314,9.927 15.151,18.808 24.033,27.167 7.314,7.314 15.673,14.106 24.033,20.898 41.273,30.825 90.906,47.02 142.106,47.02 51.2,0 100.833,-16.196 142.106,-47.02 8.359,-6.269 16.718,-13.584 24.033,-20.898 8.359,-8.359 16.718,-17.241 24.033,-27.167 5.224,-6.792 9.927,-13.584 14.106,-20.898 2.611,-3.135 3.133,-6.793 1.566,-9.927 z"
   id="path910" />

	</g>

</g>
        <g
           style="fill:#ffffff"
           id="g916">
</g>
        <g
           style="fill:#ffffff"
           id="g918">
</g>
        <g
           style="fill:#ffffff"
           id="g920">
</g>
        <g
           style="fill:#ffffff"
           id="g922">
</g>
        <g
           style="fill:#ffffff"
           id="g924">
</g>
        <g
           style="fill:#ffffff"
           id="g926">
</g>
        <g
           style="fill:#ffffff"
           id="g928">
</g>
        <g
           style="fill:#ffffff"
           id="g930">
</g>
        <g
           style="fill:#ffffff"
           id="g932">
</g>
        <g
           style="fill:#ffffff"
           id="g934">
</g>
        <g
           style="fill:#ffffff"
           id="g936">
</g>
        <g
           style="fill:#ffffff"
           id="g938">
</g>
        <g
           style="fill:#ffffff"
           id="g940">
</g>
        <g
           style="fill:#ffffff"
           id="g942">
</g>
        <g
           style="fill:#ffffff"
           id="g944">
</g>
      </g>
    </g>
  </g>
</svg>
